# xmcd
#
# Track frame offsets:
#	150
#	17822
#	35575
#	58281
#	83872
#	103524
#	127319
#	147532
#
# Disc length: 2302 seconds
#
# Revision: 0
# Processed by: cddbd v1.5.1PL0 Copyright (c) Steve Scherf et al.
# Submitted via: dBpowerAMP V4.0
#
DISCID=7708fc08
DTITLE=Alban Skenderaj - Fllad në shkretëtirë
DYEAR=2005
DGENRE=Blues
TTITLE0=Bukuri e frikshme
TTITLE1=Deri në fund
TTITLE2=Thirrje e dëshpëruar
TTITLE3=Vetëm ty
TTITLE4=E vërteta ime
TTITLE5=My oasis
TTITLE6=Hapsira e një ëndrre
TTITLE7=Verso il blu (vers. italisht i {Vetëm ty)
EXTD=
EXTT0=
EXTT1=
EXTT2=
EXTT3=
EXTT4=
EXTT5=
EXTT6=
EXTT7=
PLAYORDER=
